<svg xmlns="http://www.w3.org/2000/svg" width="30" height="29" fill="none" viewBox="0 0 30 29">
    <path fill="#B8B8B8" d="M21.343 1.203c3.61 0 6.559 2.949 6.559 6.56v12.896c0 3.61-2.949 6.558-6.559 6.558H8.446c-3.61 0-6.558-2.948-6.558-6.558V7.762c0-3.61 2.948-6.559 6.558-6.559h12.897zm0-1.203H8.446C4.154 0 .684 3.47.684 7.762V20.66c0 4.292 3.47 7.762 7.762 7.762h12.897c4.292 0 7.762-3.47 7.762-7.762V7.762C29.105 3.47 25.635 0 21.343 0z"/>
    <path fill="#B8B8B8" fill-rule="evenodd" d="M13.06 15.825c.08-.381.681-.822 1.263-1.204-.421.562-1.003 1.284-1.264 1.204zm-.442.802c.12.06.26.1.401.1h.02c.943 0 1.605-.942 3.029-3.028l.04-.04c.321-.14.622-.24.883-.301-.2.461-.662 1.263-1.264 2.106-.14.18-.12.421.04.602.14.16.381.18.562.08l.04-.02c.38-.22 1.284-.762 2.246-1.244-.2.281-.42.562-.642.843-.12.18-.14.4-.02.561.12.18.341.24.522.16h.02c.421-.16 2.587-.962 3.83-.58.242.06.502-.081.562-.322.06-.24-.06-.501-.3-.582-.883-.28-2.066-.08-3.009.161.521-.782.521-1.123.341-1.344-.1-.14-.321-.34-.802-.14-.482.22-1.043.481-1.645.802.501-.902.642-1.464.461-1.805-.14-.22-.36-.321-.642-.28-.1.02-.18.02-.28.04.782-1.144 1.023-2.187.662-2.809-.241-.4-.783-.601-1.264-.461-1.845.421-2.868 1.123-2.948 2.046-.02.26.02.902.882 1.183.12.04.24.02.341-.04.1-.06.18-.16.2-.28.06-.242-.06-.502-.3-.582-.261-.08-.24-.14-.24-.201.04-.26.38-.562.982-.822.501-.221 1.063-.381 1.203-.402.281-.04.341.02.341.02.281.462-.702 1.886-1.223 2.628-.06.08-.1.14-.14.22-2.107.983-3.21 1.906-3.35 2.789-.06.4.1.742.461.942zM6.902 16.026c0 .14.06.28.16.38.1.1.241.161.382.161.14 0 .28-.06.38-.16l1.064-1.084 1.063 1.084c.1.1.24.16.38.16.141 0 .282-.06.382-.16.1-.1.16-.241.16-.381s-.06-.281-.16-.382L9.65 14.561l1.063-1.083c.1-.1.16-.24.16-.38 0-.141-.06-.282-.16-.382-.1-.1-.24-.16-.381-.16-.14 0-.281.06-.381.16L8.888 13.8l-1.063-1.083c-.1-.1-.241-.16-.381-.16s-.281.06-.382.16c-.1.1-.16.24-.16.381 0 .14.06.281.16.381l1.063 1.083-1.063 1.083c-.1.1-.16.241-.16.382zM22.406 18.352H7.885c-.26 0-.482.22-.482.502 0 .28.221.501.482.501h14.521c.26 0 .482-.22.482-.501.02-.281-.201-.502-.482-.502z" clip-rule="evenodd"/>
    <path fill="#B8B8B8" d="M22.406 18.352H7.885c-.26 0-.482.22-.482.502 0 .28.221.501.482.501h14.521c.26 0 .482-.22.482-.501.02-.281-.201-.502-.482-.502z"/>
</svg>
