<svg xmlns="http://www.w3.org/2000/svg" width="30" height="29" fill="none" viewBox="0 0 30 29">
    <path fill="#B8B8B8" d="M21.448 1.203c3.61 0 6.559 2.949 6.559 6.56v12.896c0 3.61-2.949 6.558-6.559 6.558H8.552c-3.61 0-6.559-2.928-6.559-6.558V7.762c0-3.61 2.948-6.559 6.559-6.559h12.896zm0-1.203H8.552C4.259 0 .79 3.47.79 7.762V20.66c0 4.292 3.47 7.762 7.762 7.762h12.896c4.293 0 7.762-3.47 7.762-7.762V7.762C29.21 3.47 25.74 0 21.448 0z"/>
    <path fill="#B8B8B8" fill-rule="evenodd" d="M9.976 14.218c0-2.778 2.255-5.032 5.034-5.032 2.78 0 5.034 2.255 5.034 5.034 0 2.78-2.255 5.035-5.034 5.035-2.796 0-5.056-2.252-5.034-5.037zm5.034-3.829c-2.115 0-3.831 1.717-3.831 3.831v.005c-.017 2.108 1.694 3.826 3.83 3.826 2.116 0 3.832-1.716 3.832-3.83 0-2.115-1.716-3.832-3.831-3.832z" clip-rule="evenodd"/>
    <path fill="#B8B8B8" fill-rule="evenodd" d="M17.381 15.19c.196.268.138.644-.13.84-.62.452-1.404.738-2.261.738-.83 0-1.617-.262-2.264-.74-.267-.198-.323-.575-.125-.842s.574-.323.842-.125c.436.323.972.503 1.547.503.587 0 1.126-.196 1.55-.506.268-.196.645-.137.841.131zM6.967 6.78c0-.333.27-.602.602-.602h2.988c.333 0 .602.269.602.601 0 .333-.27.602-.602.602H8.17v2.387c0 .332-.269.601-.601.601-.333 0-.602-.269-.602-.601V6.779zM22.431 18.051c.332 0 .602.27.602.602v2.989c0 .332-.27.601-.602.601h-2.989c-.332 0-.601-.27-.601-.601 0-.333.27-.602.601-.602h2.387v-2.387c0-.332.27-.602.602-.602zM7.569 18.051c.332 0 .601.27.601.602v2.387h2.387c.333 0 .602.27.602.602 0 .332-.27.601-.602.601H7.57c-.333 0-.602-.27-.602-.601v-2.989c0-.332.27-.602.602-.602zM18.84 6.78c0-.333.27-.602.602-.602h2.989c.332 0 .602.269.602.601v2.989c0 .332-.27.601-.602.601-.332 0-.602-.269-.602-.601V7.38h-2.387c-.332 0-.601-.27-.601-.602zM13.766 12.415c.333 0 .602.27.602.602v.582c0 .332-.27.601-.602.601-.332 0-.601-.269-.601-.601v-.582c0-.332.27-.602.601-.602zM16.233 12.415c.333 0 .602.27.602.602v.582c0 .332-.27.601-.602.601-.332 0-.601-.269-.601-.601v-.582c0-.332.27-.602.601-.602z" clip-rule="evenodd"/>
</svg>
