<svg width="157" height="72" viewBox="0 0 157 72" fill="none" xmlns="http://www.w3.org/2000/svg">
<path d="M0 55.6019C0 46.0665 7.11947 39.3088 16.3398 39.3088C24.1712 39.3088 30.532 44.1874 32.0493 51.2135C32.1426 51.5753 31.9559 51.7971 31.6058 51.7971H29.0965C28.7813 51.7971 28.5596 51.6687 28.5129 51.3069C27.1707 45.9381 22.152 42.4484 16.3398 42.4484C9.26698 42.4484 3.5364 47.467 3.5364 55.6136C3.5364 63.7134 9.26698 68.8605 16.3398 68.8605C22.117 68.8605 27.0773 65.3241 28.4312 60.0837C28.5712 59.7219 28.7463 59.5935 29.1081 59.5935H31.5708C31.9326 59.5935 32.1543 59.8152 32.0143 60.177C30.497 67.0748 24.1362 72 16.3514 72C7.11946 71.9884 0 65.1373 0 55.6019Z" fill="#8979B5"/>
<path d="M34.3369 70.4244V40.8844C34.3369 40.3008 34.652 39.9857 35.2356 39.9857H36.7996C37.3831 39.9857 37.6982 40.3008 37.6982 40.8844V53.3726H56.8975V40.8844C56.8975 40.3008 57.2126 39.9857 57.7961 39.9857H59.3601C59.9437 39.9857 60.2588 40.3008 60.2588 40.8844V70.4244C60.2588 71.0079 59.9437 71.323 59.3601 71.323H57.7961C57.2126 71.323 56.8975 71.0079 56.8975 70.4244V56.4539H37.6982V70.4244C37.6982 71.0079 37.3831 71.323 36.7996 71.323H35.2356C34.652 71.323 34.3369 71.0079 34.3369 70.4244Z" fill="#8979B5"/>
<path d="M91.2693 53.9913C90.5923 46.6501 85.2702 42.355 78.7343 42.355C72.1517 42.355 66.8763 46.6967 66.1994 53.9913H91.2693ZM62.5813 55.6019C62.5813 46.0665 69.5607 39.3088 78.746 39.3088C88.1414 39.3088 94.864 46.0198 94.864 55.8704C94.864 56.3605 94.7706 56.9441 94.1871 56.9441H66.1644C66.7479 64.4137 72.1167 68.8955 79.1895 68.8955C84.0214 68.8955 87.9663 66.7013 90.2422 63.0715C90.3706 62.8031 90.604 62.6747 90.9191 62.6747H93.5101C93.9186 62.6747 94.0937 62.8965 93.9536 63.2583C91.8061 67.6933 86.7525 71.9884 79.1778 71.9884C69.5607 71.9884 62.5813 65.1373 62.5813 55.6019Z" fill="#8979B5"/>
<path d="M96.6731 55.6019C96.6731 46.0665 103.793 39.3088 113.013 39.3088C120.844 39.3088 127.205 44.1874 128.722 51.2135C128.816 51.5753 128.629 51.7971 128.279 51.7971H125.77C125.454 51.7971 125.233 51.6687 125.186 51.3069C123.844 45.9381 118.825 42.4484 113.013 42.4484C105.94 42.4484 100.209 47.467 100.209 55.6136C100.209 63.7134 105.94 68.8605 113.013 68.8605C118.79 68.8605 123.75 65.3241 125.104 60.0837C125.233 59.7219 125.419 59.5935 125.781 59.5935H128.244C128.606 59.5935 128.827 59.8152 128.687 60.177C127.17 67.0748 120.809 72 113.025 72C103.793 71.9884 96.6731 65.1373 96.6731 55.6019Z" fill="#8979B5"/>
<path d="M152.181 70.3777L144.128 58.9632C142.961 57.3526 142.249 56.6756 139.611 56.6756H134.371V70.4127C134.371 70.9962 134.056 71.3114 133.472 71.3114H131.908C131.325 71.3114 131.01 70.9962 131.01 70.4127V40.8844C131.01 40.3008 131.325 39.9857 131.908 39.9857H133.472C134.056 39.9857 134.371 40.3008 134.371 40.8844V53.7345H139.518C141.759 53.7345 142.027 53.1042 143.463 51.3185L151.75 40.9311C152.333 40.2542 152.427 39.9857 152.963 39.9857H155.204C155.835 39.9857 156.278 40.3475 155.788 40.9311L147.244 51.4002C145.681 53.326 145.319 54.178 144.105 54.8899C145.622 55.5202 146.077 56.2788 147.373 58.0645L156.196 70.3777C156.687 71.0546 156.243 71.323 155.613 71.323H153.419C152.812 71.323 152.625 70.9612 152.181 70.3777Z" fill="#8979B5"/>
<path d="M41.4563 3.79321V1.00378C41.4563 0.455227 41.0128 0.0117188 40.4643 0.0117188H36.5194C35.9709 0.0117188 35.5273 0.455227 35.5273 1.00378V16.2231C38.025 11.7763 37.8382 6.72269 41.4563 3.79321Z" fill="#8979B5"/>
<path d="M30.602 0H26.6572C26.1086 0 25.6651 0.443508 25.6651 0.992057V15.8029C25.6651 21.2767 21.1833 25.7235 15.6978 25.6768C10.259 25.6184 5.929 21.1133 5.929 15.6862V0.992057C5.929 0.443508 5.4855 0 4.93695 0H0.992057C0.443508 0 0 0.443508 0 0.992057V15.6395C0 24.3696 7.01443 31.5591 15.7445 31.5824C24.4746 31.6058 31.5824 24.5096 31.5824 15.7912V0.992057C31.5824 0.443508 31.1389 0 30.602 0Z" fill="white"/>
<path d="M51.3303 0C51.3186 0 51.2953 0 51.2836 0C42.5535 0.0233425 35.5391 7.21284 35.5391 15.9429V30.5904C35.5391 31.1389 35.9826 31.5824 36.5311 31.5824H40.476C41.0246 31.5824 41.4681 31.1389 41.4681 30.5904V15.7912C41.4681 10.3174 45.9498 5.87064 51.4353 5.91733C56.8741 5.97568 61.2042 10.4808 61.2042 15.9079V30.5904C61.2042 31.1389 61.6477 31.5824 62.1962 31.5824H66.1411C66.6896 31.5824 67.1332 31.1389 67.1332 30.5904V15.7912C67.1215 7.08445 60.037 0 51.3303 0Z" fill="white"/>
<path d="M130.777 0C122.07 0 114.985 7.08445 114.985 15.7912C114.985 24.498 122.07 31.5824 130.777 31.5824C139.483 31.5824 146.568 24.498 146.568 15.7912C146.568 7.08445 139.483 0 130.777 0ZM130.777 25.6651C125.338 25.6651 120.903 21.2417 120.903 15.7912C120.903 10.3524 125.326 5.91733 130.777 5.91733C136.215 5.91733 140.65 10.3407 140.65 15.7912C140.65 21.23 136.227 25.6651 130.777 25.6651Z" fill="white"/>
<path d="M76.0034 0H72.0585C71.5099 0 71.0664 0.443508 71.0664 0.992057V30.602C71.0664 31.1506 71.5099 31.5941 72.0585 31.5941H76.0034C76.5519 31.5941 76.9954 31.1506 76.9954 30.602V0.992057C76.9837 0.443508 76.5519 0 76.0034 0Z" fill="white"/>
<path d="M110.364 20.273H105.66C105.287 20.273 104.948 20.4714 104.761 20.7865C103.046 23.716 99.8594 25.7001 96.218 25.6884C90.9542 25.6768 86.5892 21.4751 86.3791 16.2114C86.1574 10.5975 90.6625 5.95235 96.2413 5.95235C99.8477 5.95235 103.011 7.90145 104.738 10.8076C104.948 11.1577 105.322 11.3678 105.718 11.3678H110.352C110.877 11.3678 111.239 10.8426 111.052 10.3524C108.765 4.16665 102.696 -0.198405 95.6694 0.0466911C87.3828 0.338473 80.6952 7.08446 80.4618 15.3594C80.205 24.2762 87.3828 31.6058 96.2413 31.6058C103.034 31.6058 108.835 27.2991 111.052 21.265C111.227 20.7865 110.877 20.273 110.364 20.273Z" fill="white"/>
</svg>
